#!OML:ASF X:\für Bonn\!DataBase\2005_08_10_Bjorn_Final\c3d\bjorn.ASF
:FULLY-SPECIFIED
:DEGREES
276
root -0.0559127 2.65646 22.0435 -430.149 -172.631 365.908
lowerback 53.8983 6.36536 19.1391
upperback 26.7244 2.00363 6.49109
thorax 11.307 -4.15636 -3.03798
lowerneck 4.54799 9.63476 1.99263
upperneck 14.9743 13.2336 -11.6285
head 4.66346 5.69045 -3.52767
rclavicle -5.32743e-014 -5.80451e-014
rhumerus -237.781 -161.52 108.598
rradius 31.9858
rwrist -27.0053
rhand -13.8458 3.6221
rfingers 7.12502
rthumb 12.2778 -25.9975
lclavicle -5.32743e-014 -5.80451e-014
lhumerus -406.497 -22.4733 -286.294
lradius 31.6558
lwrist 19.3737
lhand -19.5549 -0.51276
lfingers 7.12502
lthumb 6.76953 29.359
rfemur -72.7423 -39.1219 1.5749
rtibia 121.504
rfoot 31.5331 19.4364
rtoes -5.25206
lfemur -82.7892 25.7307 3.5402
ltibia 142.275
lfoot 14.2915 -35.811
ltoes -9.80799
277
root -0.0688355 2.61118 22.0453 -430.304 -172.73 365.901
lowerback 54.1099 6.30411 19.2028
upperback 26.7444 1.89376 6.46775
thorax 11.3214 -4.24978 -3.06027
lowerneck 4.7486 9.79486 2.18917
upperneck 14.8271 13.4496 -11.7283
head 4.62098 5.82007 -3.58949
rclavicle -6.7388e-014 -3.26007e-014
rhumerus -238.158 -161.579 109.283
rradius 32.0979
rwrist -26.8757
rhand -13.6683 4.02989
rfingers 7.12502
rthumb 12.4489 -25.5794
lclavicle -6.7388e-014 -3.26007e-014
lhumerus -407.47 -23.5356 -285.662
lradius 32.4506
lwrist 20.8797
lhand -19.5635 -0.430886
lfingers 7.12502
lthumb 6.76118 29.4412
rfemur -72.9117 -39.1091 1.64349
rtibia 121.525
rfoot 31.6805 19.4898
rtoes -6.0222
lfemur -83.152 25.7585 3.36122
ltibia 142.383
lfoot 14.7242 -35.6855
ltoes -9.82158
278
root -0.0810349 2.56684 22.0456 -430.444 -172.822 365.882
lowerback 54.2894 6.24158 19.2785
upperback 26.7832 1.77871 6.42351
thorax 11.3657 -4.33743 -3.11316
lowerneck 4.80739 9.93667 2.39934
upperneck 14.7648 13.6518 -11.7808
head 4.62534 5.93753 -3.63097
rclavicle 1.39149e-015 3.18055e-014
rhumerus -238.509 -161.641 109.912
rradius 32.2224
rwrist -26.8065
rhand -13.4895 4.32043
rfingers 7.12502
rthumb 12.6213 -25.2783
lclavicle 1.39149e-015 3.18055e-014
lhumerus -408.412 -24.578 -285.058
lradius 33.2459
lwrist 22.3956
lhand -19.6401 -0.318302
lfingers 7.12502
lthumb 6.6873 29.5561
rfemur -73.1073 -39.1284 1.71074
rtibia 121.563
rfoot 31.834 19.5222
rtoes -6.50959
lfemur -83.5104 25.9004 3.1959
ltibia 142.493
lfoot 15.2066 -35.5839
ltoes -9.71772
279
root -0.0926877 2.52359 22.0454 -430.574 -172.897 365.852
lowerback 54.4665 6.20067 19.3086
upperback 26.8063 1.68208 6.40336
thorax 11.3819 -4.42311 -3.12276
lowerneck 4.7411 10.0788 2.59914
upperneck 14.8939 13.862 -11.771
head 4.70569 6.04429 -3.64252
rclavicle -1.70955e-014 7.95139e-015
rhumerus -238.871 -161.722 110.599
rradius 32.3359
rwrist -26.6328
rhand -13.2076 4.4495
rfingers 7.12502
rthumb 12.893 -25.1322
lclavicle -1.70955e-014 7.95139e-015
lhumerus -409.314 -25.4004 -284.515
lradius 34.0018
lwrist 23.7039
lhand -19.6526 -0.204262
lfingers 7.12502
lthumb 6.67516 29.6705
rfemur -73.3016 -39.1308 1.7604
rtibia 121.593
rfoot 31.9978 19.5281
rtoes -7.01887
lfemur -83.8629 25.952 2.99429
ltibia 142.601
lfoot 15.5511 -35.4663
ltoes -9.92371
280
root -0.103377 2.48134 22.0459 -430.689 -172.98 365.82
lowerback 54.6104 6.15798 19.3328
upperback 26.8354 1.57625 6.37484
thorax 11.4077 -4.50998 -3.13924
lowerneck 4.58343 10.2225 2.76672
upperneck 15.141 14.0765 -11.7139
head 4.83311 6.14265 -3.62777
rclavicle -1.78906e-015 -1.47101e-014
rhumerus -239.193 -161.773 111.32
rradius 32.3491
rwrist -26.3048
rhand -12.7323 4.55712
rfingers 7.12502
rthumb 13.3513 -24.9951
lclavicle -1.78906e-015 -1.47101e-014
lhumerus -410.145 -25.9664 -284.099
lradius 34.7198
lwrist 24.794
lhand -19.6981 -0.1896
lfingers 7.12502
lthumb 6.63123 29.6866
rfemur -73.5125 -39.1254 1.83942
rtibia 121.62
rfoot 32.1433 19.5518
rtoes -7.38346
lfemur -84.2424 26.042 2.8243
ltibia 142.71
lfoot 16.1222 -35.3014
ltoes -9.83645
281
root -0.112592 2.44102 22.0461 -430.8 -173.018 365.786
lowerback 54.7422 6.1105 19.3215
upperback 26.8489 1.46779 6.32808
thorax 11.4079 -4.59268 -3.15787
lowerneck 4.48507 10.361 2.91849
upperneck 15.3762 14.2713 -11.5935
head 4.9405 6.23626 -3.59507
rclavicle 4.90998e-014 2.10712e-014
rhumerus -239.523 -161.865 112.003
rradius 32.3391
rwrist -25.9805
rhand -12.1892 4.68777
rfingers 7.12502
rthumb 13.8746 -24.8294
lclavicle 4.90998e-014 2.10712e-014
lhumerus -411.007 -26.4423 -283.741
lradius 35.4514
lwrist 25.6987
lhand -19.7747 -0.126609
lfingers 7.12502
lthumb 6.55736 29.7519
rfemur -73.7297 -39.129 1.87498
rtibia 121.65
rfoot 32.2826 19.5617
rtoes -7.78323
lfemur -84.5982 26.0612 2.61473
ltibia 142.809
lfoot 16.6056 -35.1535
ltoes -9.80745
282
root -0.121426 2.40191 22.046 -430.918 -173.064 365.77
lowerback 54.8129 6.05222 19.3309
upperback 26.9057 1.32288 6.26694
thorax 11.4709 -4.68893 -3.20161
lowerneck 4.35081 10.5004 3.11358
upperneck 15.6363 14.473 -11.501
head 5.0674 6.33204 -3.57417
rclavicle 8.34896e-015 2.34566e-014
rhumerus -239.77 -161.964 112.594
rradius 32.3323
rwrist -25.6737
rhand -11.7041 4.85148
rfingers 7.12502
rthumb 14.3422 -24.6331
lclavicle 8.34896e-015 2.34566e-014
lhumerus -411.761 -26.7503 -283.492
lradius 36.1437
lwrist 26.4041
lhand -19.8589 -0.00680649
lfingers 7.12502
lthumb 6.476 29.8742
rfemur -73.9151 -39.1368 1.9076
rtibia 121.679
rfoot 32.4346 19.6057
rtoes -8.20071
lfemur -84.9394 26.0419 2.44205
ltibia 142.913
lfoot 17.0178 -35.0038
ltoes -9.96051
283
root -0.129563 2.36356 22.0452 -431.018 -173.11 365.732
lowerback 54.8756 5.98667 19.3395
upperback 26.9424 1.19157 6.17064
thorax 11.5096 -4.76462 -3.28409
lowerneck 4.21105 10.6205 3.35314
upperneck 15.9604 14.6462 -11.3807
head 5.21446 6.41344 -3.55162
rclavicle 4.01545e-014 2.78299e-015
rhumerus -240.027 -162.089 113.095
rradius 32.3134
rwrist -25.4482
rhand -11.3063 5.00484
rfingers 7.12502
rthumb 14.7254 -24.4522
lclavicle 4.01545e-014 2.78299e-015
lhumerus -412.511 -27.0885 -283.262
lradius 36.7919
lwrist 27.0993
lhand -20.0203 0.0480967
lfingers 7.12502
lthumb 6.32022 29.9338
rfemur -74.1172 -39.127 1.95652
rtibia 121.702
rfoot 32.6046 19.5766
rtoes -8.47665
lfemur -85.3017 26.0215 2.26906
ltibia 143.017
lfoot 17.445 -34.8466
ltoes -10.1712
284
root -0.137196 2.32821 22.045 -431.111 -173.126 365.71
lowerback 54.888 5.92385 19.323
upperback 26.9864 1.05245 6.08396
thorax 11.5559 -4.84263 -3.34653
lowerneck 4.11981 10.7296 3.58046
upperneck 16.2757 14.7977 -11.2601
head 5.34869 6.48515 -3.53089
rclavicle 8.15017e-014 -7.95139e-016
rhumerus -240.26 -162.283 113.534
rradius 32.3024
rwrist -25.3126
rhand -10.9521 5.07763
rfingers 7.12502
rthumb 15.0666 -24.3541
lclavicle 8.15017e-014 -7.95139e-016
lhumerus -413.176 -27.3132 -283.073
lradius 37.3449
lwrist 27.6294
lhand -20.1657 0.129671
lfingers 7.12502
lthumb 6.1798 30.0195
rfemur -74.314 -39.1305 1.97901
rtibia 121.734
rfoot 32.7444 19.6114
rtoes -8.7134
lfemur -85.6336 25.9784 2.09173
ltibia 143.109
lfoot 17.8371 -34.7071
ltoes -10.4598
285
root -0.144521 2.29584 22.0444 -431.197 -173.141 365.694
lowerback 54.8493 5.85494 19.3274
upperback 27.0564 0.900171 5.98908
thorax 11.6426 -4.9195 -3.43011
lowerneck 4.04107 10.8281 3.80346
upperneck 16.5446 14.9322 -11.1431
head 5.46531 6.55233 -3.51236
rclavicle -6.89783e-014 1.23246e-014
rhumerus -240.42 -162.531 113.868
rradius 32.2725
rwrist -25.1951
rhand -10.6468 5.20419
rfingers 7.12502
rthumb 15.3607 -24.2052
lclavicle -6.89783e-014 1.23246e-014
lhumerus -413.805 -27.542 -282.899
lradius 37.915
lwrist 28.1379
lhand -20.3368 0.248951
lfingers 7.12502
lthumb 6.01465 30.1436
rfemur -74.491 -39.1482 1.9918
rtibia 121.763
rfoot 32.9188 19.6176
rtoes -8.74473
lfemur -85.9459 25.9081 1.91306
ltibia 143.193
lfoot 18.1626 -34.5528
ltoes -10.7402
